<svg width="160" xmlns="http://www.w3.org/2000/svg" viewBox="0 0 91 25"><path d="M17.819 13.977c0-3.4-1.94-5.968-4.858-6.733v6.447H9.22V7.244c-2.919.765-4.858 3.332-4.858 6.733 0 3.913 2.897 6.874 6.728 6.874s6.728-2.961 6.728-6.874zM12.96 3.23c5.255.836 9.22 5.163 9.22 10.747C22.181 20.13 17.372 25 11.091 25 4.809 25 0 20.129 0 13.977 0 8.392 3.966 4.067 9.22 3.23V0h3.74v3.23zm20.595 6.437v3.99c-1.739.027-4.122.603-5.18 1.724v9.05h-3.92V9.725h3.92v1.552c1.51-1.19 3.581-1.687 5.18-1.609zm1.138 12.738l2.262-2.853a5.315 5.315 0 0 0 4.102 1.943c.975 0 1.594-.43 1.594-1.105 0-1.017-.975-1.233-2.874-1.641-3.025-.652-4.502-2.13-4.502-4.53 0-2.603 2.437-4.56 5.615-4.56 2.146 0 4.023.739 5.427 2.158l-2.001 2.645c-1.04-.896-2.145-1.32-3.375-1.32-.975 0-1.6.396-1.6.984 0 .802.72.981 2.822 1.412 2.881.587 4.474 2.286 4.474 4.78 0 2.725-2.292 4.682-5.463 4.682-2.626 0-5.128-.982-6.481-2.595zm23.887 1.149c-1.178.582-2.44.878-3.624.878-2.99 0-5.374-1.946-5.374-5.627v-5.528h-2.377v-3.54h2.377V5.113h3.92v4.622h3.894l-.988 3.54h-2.906v5.059c0 1.798.896 2.64 2.166 2.64.607 0 1.297-.19 1.996-.562l.916 3.142v-.001zm4.844-7.86h6.527c-.412-1.583-1.57-2.6-3.116-2.6-1.641 0-2.905 1.012-3.41 2.6zm3.589 5.678c1.715 0 2.825-.757 3.593-1.85l2.555 2.529C71.81 23.865 69.533 25 67.014 25c-4.483 0-7.864-3.3-7.864-7.678 0-4.363 3.302-7.663 7.686-7.663 4.163 0 7.102 3.264 7.102 7.449a11.7 11.7 0 0 1-.1 1.436H63.34c.457 1.717 1.884 2.828 3.674 2.828zm19.966-1.413v-5.285c-.673-.79-1.811-1.376-3.188-1.37-2.32.007-3.991 1.737-3.984 4.018.007 2.28 1.68 4.01 3.984 4.018 1.37.005 2.513-.585 3.188-1.381zM91 3.409v21.305h-4.02v-.7c-1.083.642-2.357.986-3.719.986-4.344 0-7.617-3.303-7.617-7.678s3.273-7.679 7.617-7.679c1.361 0 2.638.336 3.719.972V3.409H91z" fill="#3A9CDE" fill-rule="evenodd"></path></svg>